<svg width="44" height="44" viewBox="0 0 44 44" fill="none" xmlns="http://www.w3.org/2000/svg">
<rect width="44" height="44" rx="22" fill="#319795" fill-opacity="0.1"/>
<path d="M12 32V29.5H15.4375L14.9375 29.0625C13.8542 28.1042 13.0938 27.0104 12.6562 25.7812C12.2188 24.5521 12 23.3125 12 22.0625C12 19.75 12.6927 17.6927 14.0781 15.8906C15.4635 14.0885 17.2708 12.8958 19.5 12.3125V14.9375C18 15.4792 16.7917 16.401 15.875 17.7031C14.9583 19.0052 14.5 20.4583 14.5 22.0625C14.5 23 14.6771 23.9115 15.0312 24.7969C15.3854 25.6823 15.9375 26.5 16.6875 27.25L17 27.5625V24.5H19.5V32H12ZM24.5 31.6875V29.0625C26 28.5208 27.2083 27.599 28.125 26.2969C29.0417 24.9948 29.5 23.5417 29.5 21.9375C29.5 21 29.3229 20.0885 28.9688 19.2031C28.6146 18.3177 28.0625 17.5 27.3125 16.75L27 16.4375V19.5H24.5V12H32V14.5H28.5625L29.0625 14.9375C30.0833 15.9583 30.8281 17.0677 31.2969 18.2656C31.7656 19.4635 32 20.6875 32 21.9375C32 24.25 31.3073 26.3073 29.9219 28.1094C28.5365 29.9115 26.7292 31.1042 24.5 31.6875Z" fill="#319795"/>
</svg>
