<svg width="44" height="49" viewBox="0 0 44 49" fill="none" xmlns="http://www.w3.org/2000/svg">
<rect width="44" height="49" rx="22" fill="#319795" fill-opacity="0.1"/>
<path d="M20.75 33.25H23.25V28.0312L25.25 30.0312L27 28.25L22 23.25L17 28.25L18.7812 30L20.75 28.0312V33.25ZM14.5 37C13.8125 37 13.224 36.7552 12.7344 36.2656C12.2448 35.776 12 35.1875 12 34.5V14.5C12 13.8125 12.2448 13.224 12.7344 12.7344C13.224 12.2448 13.8125 12 14.5 12H24.5L32 19.5V34.5C32 35.1875 31.7552 35.776 31.2656 36.2656C30.776 36.7552 30.1875 37 29.5 37H14.5ZM23.25 20.75V14.5H14.5V34.5H29.5V20.75H23.25ZM14.5 14.5V20.75V14.5V20.75V34.5V14.5Z" fill="#319795"/>
</svg>
